<?xml version="1.0" encoding="UTF-8" standalone="no"?>
<!-- Created with Inkscape (http://www.inkscape.org/) -->

<svg
   xmlns:dc="http://purl.org/dc/elements/1.1/"
   xmlns:cc="http://creativecommons.org/ns#"
   xmlns:rdf="http://www.w3.org/1999/02/22-rdf-syntax-ns#"
   xmlns:svg="http://www.w3.org/2000/svg"
   xmlns="http://www.w3.org/2000/svg"
   xmlns:sodipodi="http://sodipodi.sourceforge.net/DTD/sodipodi-0.dtd"
   xmlns:inkscape="http://www.inkscape.org/namespaces/inkscape"
   width="2160"
   height="3240"
   id="svg2"
   version="1.1"
   inkscape:version="0.48.5 r10040"
   sodipodi:docname="gatepat.svg">
  <defs
     id="defs4" />
  <sodipodi:namedview
     id="base"
     pagecolor="#ffffff"
     bordercolor="#666666"
     borderopacity="1.0"
     inkscape:pageopacity="0.0"
     inkscape:pageshadow="2"
     inkscape:zoom="0.24748737"
     inkscape:cx="1352.8767"
     inkscape:cy="2054.6556"
     inkscape:document-units="px"
     inkscape:current-layer="layer1"
     showgrid="false"
     fit-margin-top="0"
     fit-margin-left="0"
     fit-margin-right="0"
     fit-margin-bottom="0"
     inkscape:window-width="1116"
     inkscape:window-height="856"
     inkscape:window-x="0"
     inkscape:window-y="1"
     inkscape:window-maximized="0"
     units="in" />
  <metadata
     id="metadata7">
    <rdf:RDF>
      <cc:Work
         rdf:about="">
        <dc:format>image/svg+xml</dc:format>
        <dc:type
           rdf:resource="http://purl.org/dc/dcmitype/StillImage" />
        <dc:title></dc:title>
      </cc:Work>
    </rdf:RDF>
  </metadata>
  <g
     inkscape:label="Layer 1"
     inkscape:groupmode="layer"
     id="layer1"
     transform="translate(-124.05082,2637.0795)">
    <path
       style="fill:#000000"
       d="m 124.05082,-2627.1114 c 113.7795,-5.3831 2118.11038,-8.6025 2163.86528,-7.9334 0.4019,80.6757 -8.7323,3171.84019 -4.3661,3234.58916 -788.7362,1.46346 -1237.9872,0.45758 -2153.46307,0.45758 -6.5815,-59.46604 4.15136,-3169.94604 -6.03611,-3227.11334 z M 377.162,474.68645 c -4.96817,-10.81855 -16.86623,-19.53456 -26.44009,-19.36894 -10.45914,0.17704 -8.65645,7.9119 4.51654,19.36894 28.07852,24.42101 33.13817,24.42101 21.92355,0 z m 1101.0546,-93.43292 c -45.4017,-66.14107 -55.0886,-101.38633 -41.7322,-151.83873 7.0841,-26.75919 1.2438,-48.55542 -18.8892,-70.49583 -25.5085,-27.79856 -26.2216,-33.26939 -5.7176,-43.85859 15.3902,-7.9479 26.5276,1.05235 32.4673,26.23832 5.698,24.16097 22.1876,38.33642 44.5954,38.33642 19.5546,0 35.5542,3.7019 35.5542,8.22622 0,4.52452 3.9921,22.2276 8.8717,39.34018 5.8215,20.41736 0.7964,31.11395 -14.6158,31.11395 -34.5699,0 -28.5919,33.93209 12.3364,70.02315 40.9874,36.1434 102.4073,21.15067 90.1052,-21.99508 -11.8853,-41.68329 16.4194,-53.37675 33.9347,-14.01907 14.6923,33.01388 16.5351,33.05165 35.2288,0.71992 10.8491,-18.76429 23.9678,-28.40773 29.1527,-21.42978 15.5423,20.91737 64.4587,-51.21264 72.3347,-106.66184 15.5058,-109.164272 -24.3567,-138.142646 -67.7411,-49.24486 -20.401,41.80307 -24.9931,45.02287 -20.2119,14.17172 3.4027,-21.95655 -3.4308,-52.012048 -15.1858,-66.790187 -18.4549,-23.201263 -19.9347,-20.772013 -10.8389,17.79671 7.189,30.483727 5.3958,40.392337 -5.648,31.206597 -25.0658,-20.848917 -20.7431,-116.0527458 4.6737,-102.9264965 11.47,5.9236505 28.718,-1.9807806 38.3287,-17.5655897 9.6107,-15.5848098 37.1034,-28.3359388 61.0951,-28.3359388 32.9217,0 41.5414,-7.294257 35.1419,-29.73822 -10.5033,-36.836965 16.9747,-121.867815 43.8708,-135.758045 27.7516,-14.33202 63.7909,7.1963 63.7909,38.10608 0,14.16876 -7.7603,29.24273 -17.2451,33.49777 -9.6282,4.31916 -13.0585,22.41936 -7.7665,40.979281 15.0371,52.737284 80.4103,40.393119 128.4459,-24.254201 41.2341,-55.49404 58.1362,-139.20423 28.1071,-139.20423 -8.0387,0 -14.6156,-8.85154 -14.6156,-19.6701 0,-10.81855 13.1541,-19.67009 29.2314,-19.67009 23.3259,0 29.2313,-13.11345 29.2313,-64.9113 0,-67.22055 -21.4721,-112.1195 -53.6194,-112.1195 -10.4767,0 -14.8823,12.83356 -10.1288,29.50513 5.3598,18.79792 -0.2412,29.50514 -15.4362,29.50514 -13.1169,0 -29.8577,-21.26907 -37.2015,-47.26448 -16.9436,-59.97684 -39.2137,-78.83576 -54.4503,-46.11001 -16.7109,35.89278 -86.8493,93.37449 -113.9342,93.37449 -16.5089,0 -20.374,12.55935 -14.1446,45.96192 7.1,38.07165 3.0253,45.66941 -23.7343,44.25769 -24.236,-1.27855 -36.5994,15.19673 -49.4933,65.95363 -9.4531,37.21186 -24.5861,70.97694 -33.629,75.0337 -9.0429,4.05677 -13.0741,19.18582 -8.9584,33.62051 4.1158,14.43451 0.4574,32.08802 -8.129,39.23024 -8.5865,7.142002 -15.612,1.49492 -15.612,-12.54795 0,-14.04346 -22.8936,9.77583 -50.8746,52.931814 -27.9809,43.155983 -51.0007,71.0829872 -51.155,62.0599181 -0.1549,-9.0230581 -27.9667,13.1057792 -61.806,49.1752199 -33.839,36.06944 -65.08,63.473608 -69.4246,60.898398 -15.9873,-9.476846 -59.2466,17.85435 -52.2778,33.02924 3.9601,8.62356 -15.6172,47.29869 -43.5054,85.94471 -50.2641,69.65336 -56.3176,131.58443 -12.8618,131.58443 11.1978,0 20.3598,12.62821 20.3598,28.06293 0,33.37581 28.5157,45.25734 116.0062,48.33571 l 64.8511,2.28173 z m 677.5245,-108.18548 c 1.5243,-89.25304 3.8753,-226.709202 5.2246,-305.458199 1.349,-78.749001 -3.1862,-147.870691 -10.0792,-153.604131 -6.893,-5.73324 -12.5326,-2.32302 -12.5326,7.5783 0,9.90133 -21.9204,56.89435 -48.7121,104.428904 -76.7642,136.196675 -79.414,222.494086 -6.8659,223.602686 22.6841,0.3462 31.7365,10.13206 27.7707,30.01951 -3.2362,16.22782 -9.8134,60.48552 -14.6157,98.35044 -8.428,66.4489 -11.1418,69.01035 -77.9613,73.58836 -63.8926,4.37739 -68.9625,1.34544 -65.7706,-39.34018 2.8167,-35.89869 -4.682,-45.11118 -40.3884,-49.61956 -31.7689,-4.01113 -64.7616,14.95319 -119.7723,68.84531 -41.7588,40.91005 -76.2885,81.02031 -76.7325,89.13421 -0.4443,8.11392 97.8487,14.75258 218.4283,14.75258 l 219.2356,0 z M 683.17677,390.39147 c -16.58049,-13.13982 -52.75435,-47.41692 -80.38635,-76.17124 -73.89728,-76.89884 -147.0227,-82.92162 -141.41583,-11.64706 3.25726,41.40653 -1.22626,43.81512 -69.59689,37.38616 -40.19317,-3.77942 -74.06945,-8.20518 -75.2805,-9.83504 -1.21165,-1.63066 -4.49959,-47.2212 -7.30785,-101.31395 -4.74003,-91.30345 -2.83633,-97.92931 26.56812,-92.47263 34.23451,6.35285 58.9096,-54.201326 40.39605,-99.134699 C 346.96668,-33.635665 273.63022,-173.478 265.43622,-173.9192 c -5.17878,-0.27931 -8.67822,132.265815 -7.77629,294.54405 l 1.63974,295.05134 227.01165,-0.69632 c 185.05187,-0.56847 221.4397,-5.11285 196.86545,-24.58762 z m 394.02313,-2.44342 c -4.7534,-16.67061 4.1722,-32.8874 22.3823,-40.66575 16.6587,-7.11564 30.2883,-24.7013 30.2883,-39.07954 0,-23.7007 -93.0372,-148.23773 -110.7431,-148.23773 -22.44946,0 -43.48503,52.92788 -38.65139,97.25088 3.76927,34.56251 -6.36101,68.304 -31.44213,104.72591 l -37.00301,53.73437 86.53751,0 c 68.45272,0 84.88542,-5.79482 78.63152,-27.72814 z m 140.3649,8.05805 c 0,-10.81855 -2.9004,-19.67009 -6.4453,-19.67009 -3.5449,0 -10.5102,8.85154 -15.4783,19.67009 -4.9682,10.81855 -2.0678,19.67009 6.4453,19.67009 8.5131,0 15.4783,-8.85154 15.4783,-19.67009 z M 882.36451,316.63374 c 33.5806,-24.18693 37.29532,-58.31827 6.34701,-58.31827 -29.25683,0 -28.17015,-71.24545 1.31834,-86.47482 12.78347,-6.60168 27.9097,-8.12139 33.61392,-3.37677 5.70421,4.74462 17.48052,-6.69373 26.16955,-25.41848 13.43213,-28.9461 -1.16487,-51.990794 -97.46888,-153.871227 -86.46006,-91.466713 -121.50354,-143.511993 -148.06816,-219.904723 -26.38002,-75.86202 -41.87399,-99.00665 -64.03227,-95.64994 -21.20855,3.21293 -28.58479,-6.36897 -26.8755,-34.91185 2.13375,-35.63177 -36.03427,-70.32923 -158.11951,-143.74174 -5.53468,-3.32817 -12.21449,14.37491 -14.844,39.34018 -3.1738,30.13321 -14.60678,45.3913 -34.01219,45.3913 -16.07728,0 -27.58714,-11.06444 -25.57748,-24.58761 4.63347,-31.17946 -14.45888,-31.68322 -37.27004,-0.98351 -29.06244,39.11278 -21.63255,127.72752 11.69256,139.45602 29.66139,10.4389 41.41506,53.31086 14.6157,53.31086 -29.01406,0 -13.74665,72.40067 25.57748,121.29205 49.34553,61.350818 80.33037,77.095735 107.28918,54.519004 17.02963,-14.261406 17.34723,-24.308304 1.8334,-57.990384 -23.5044,-51.03089 -11.70718,-78.4805 33.7288,-78.4805 40.97057,0 71.17875,62.14489 61.914,127.370513 -4.72774,33.284351 -0.42824,42.218903 17.31259,35.975217 45.60786,-16.051191 103.12137,29.059222 103.12137,80.882612 0,58.96543 -23.21514,82.029798 -51.15496,50.822997 -56.2206,-62.794588 -70.33704,74.323041 -15.27999,148.419671 37.18133,50.03952 73.00631,62.04182 87.96403,29.47012 13.78289,-30.0134 51.54943,-0.27931 51.54943,40.58569 0,41.95749 42.57773,50.06117 88.65503,16.87359 z m 363.19959,-121.8859 42.2031,-63.56763 -41.7023,-23.5982 c -31.3838,-17.759342 -52.4731,-18.126778 -85.2338,-1.4851 l -43.5314,22.1137 39.1707,63.63216 c 21.544,34.99761 40.9077,64.27103 43.0308,65.05213 2.1229,0.7809 22.8512,-27.18525 46.0629,-62.14745 z M 527.45467,99.555232 c 1.02163,-48.364617 -4.49039,-57.610738 -34.34456,-57.610738 -19.55903,0 -36.05051,6.638647 -36.64786,14.752562 -0.59778,8.113915 -3.69264,33.328804 -6.87858,56.033394 -4.73637,33.75407 1.72349,41.56822 35.43065,42.85798 35.84238,1.37101 41.38216,-5.94233 42.44035,-56.033198 z M 1965.552,105.47199 c 5.3034,-48.951966 1.5745,-53.822671 -42.2318,-55.168301 -47.3473,-1.453616 -56.951,16.21228 -40.3895,74.296481 4.2128,14.77441 23.2171,28.5956 42.2319,30.71367 27.4128,3.05318 35.7772,-7.26869 40.3894,-49.84185 z M 1122.1652,23.140278 c 4.7494,-10.342339 -1.3695,-51.027748 -13.5963,-90.412184 -21.2025,-68.293564 -20.8502,-72.094024 7.6116,-82.110824 24.2671,-8.54055 29.0168,-23.80612 25.4205,-81.70109 -2.8766,-46.31106 -12.0858,-71.92919 -26.3461,-73.28938 -50.4371,-4.81091 -87.6942,-34.14628 -87.6942,-69.04831 0,-20.37526 6.577,-37.04605 14.6157,-37.04605 8.0386,0 14.6157,-12.53968 14.6157,-27.86603 0,-15.32614 8.144,-31.51934 18.0977,-35.98466 30.2342,-13.5633 -10.656,-106.99073 -62.6694,-143.1896 -48.56746,-33.80048 -64.55631,-27.27276 -64.85973,26.48028 -0.10237,18.48378 -11.72207,33.11007 -26.37593,33.20626 -14.40421,0.0983 -32.61611,13.37192 -40.47087,29.50513 -12.32541,25.31559 -17.18193,24.22175 -35.45901,-7.98723 -11.64769,-20.52633 -17.7116,-44.86808 -13.47538,-54.09275 4.23621,-9.22469 -2.16342,-16.7723 -14.22138,-16.7723 -33.98208,0 -45.44561,-42.6359 -18.57377,-69.08036 13.28612,-13.07452 24.15654,-37.25397 24.15654,-53.732 0,-16.47803 13.15413,-34.58945 29.23139,-40.24776 39.74566,-13.98799 36.72868,-42.36287 -10.81239,-101.69004 -53.5705,-66.85137 -120.7289,-68.56971 -120.7289,-3.08918 0,35.31096 -9.73772,49.38746 -39.45348,57.03244 -55.68261,14.32534 -106.70354,-16.3183 -106.70354,-64.08751 0,-50.14123 -31.58482,-51.32502 -64.47321,-2.41628 -34.43064,51.20224 -26.30943,177.10674 13.31826,206.47319 16.07727,11.91438 31.81298,23.66135 34.96807,26.10438 3.15524,2.44321 -2.68534,18.09943 -12.97889,34.79166 -15.42469,25.01289 -14.33946,36.85723 6.17162,67.35965 13.68805,20.35557 37.60897,41.48755 53.15759,46.95957 31.45139,11.06915 52.17016,-15.67766 27.82802,-35.92446 -27.45911,-22.83954 16.54965,-72.22405 53.29994,-59.81066 18.19086,6.14456 37.53752,1.45166 42.99283,-10.42692 6.22906,-13.56429 25.42459,1.24906 51.60291,39.8223 33.11407,48.79303 39.89823,73.43927 32.99714,119.877 -5.92739,39.88662 -17.39239,58.45596 -36.09142,58.45596 -64.36332,0 -3.91628,193.5234 79.71344,255.20545 37.47393,27.63923 42.27986,27.13489 60.81534,-6.38156 26.06272,-47.12719 53.89587,-23.37948 50.70304,43.260619 -4.19587,87.576544 -0.81261,97.3447081 40.79237,117.795302 52.5404,25.825458 102.0603,27.605797 112.8742,4.057947 z M 1433.4568,5.0125262 c 36.5677,-26.3382562 40.1597,-43.3426632 16.0185,-75.8323302 -18.3433,-24.686744 -7.304,-83.936596 15.639,-83.936596 8.0385,0 11.0542,12.4907 6.7012,27.75705 -14.5267,50.947696 100.1915,-0.11802 137.4419,-61.18067 48.6924,-79.81926 69.7743,-133.11161 44.5827,-112.69996 -15.7586,12.76864 -16.219,10.14347 -2.2882,-13.04836 14.6656,-24.4151 15.7796,-47.02489 5.6022,-113.70019 -0.6153,-4.02942 -10.9839,3.69305 -23.0418,17.16097 -12.058,13.46791 -22.6735,21.1904 -23.5901,17.16096 -0.9164,-4.02921 -3.811,-31.66765 -6.4322,-61.41867 -4.0511,-45.98375 0.5803,-54.09273 30.8979,-54.09273 19.6149,0 35.6637,-8.85154 35.6637,-19.6701 0,-10.81855 -6.5772,-19.67009 -14.6158,-19.67009 -8.0386,0 -14.6157,-8.26536 -14.6157,-18.36753 0,-10.10218 16.0221,-14.45732 35.6048,-9.67846 19.5827,4.77903 39.713,-0.25768 44.734,-11.19072 6.0973,-13.27711 18.857,-12.87349 38.4175,1.21561 22.4281,16.15406 25.4773,27.27454 13.019,47.4773 -20.6543,33.49345 3.4813,56.86171 41.8162,40.48715 40.1587,-17.1537 86.8374,-92.83968 63.9136,-103.6309 -28.7417,-13.53084 -21.3201,-64.33299 9.3981,-64.33299 55.5142,0 64.3224,-165.93293 12.2995,-231.70696 -33.5187,-42.37877 -83.5789,-31.8917 -62.8837,13.17365 13.7016,29.83639 -57.7772,64.28677 -102.2302,49.27141 -19.4833,-6.58102 -31.6147,-20.26058 -26.9589,-30.39895 10.0455,-21.8747 -20.1637,-75.7204 -42.4815,-75.7204 -8.5908,0 -2.8527,12.99589 12.7512,28.87964 24.9569,25.40411 9.2182,28.95475 -12.6426,29.50513 -13.6681,0.34423 -14.1703,-12.55643 -20.8697,-28.66779 -10.3474,-24.88381 -19.8693,-22.26199 -63.2606,17.41987 -59.1836,54.12379 -71.0538,120.55381 -24.4711,136.94824 30.8382,10.85318 30.8559,11.22081 2.6373,54.447 -23.6741,36.26438 -24.348,41.53123 -4.0428,31.59155 14.3465,-7.02282 27.6822,-0.30488 32.4266,16.33464 4.7023,16.49159 -0.6898,28.26316 -12.9474,28.26316 -12.2733,0 -17.6503,11.7694 -12.9339,28.31036 4.4398,15.57085 1.0495,44.33835 -7.5331,63.9278 -14.5059,33.10849 -16.2638,32.46096 -24.9582,-9.19184 -6.8466,-32.80026 -16.7018,-41.67048 -36.7729,-33.09728 -20.78,8.87612 -27.4196,1.86472 -27.4196,-28.95339 0,-22.36627 -6.2677,-40.66575 -13.9281,-40.66575 -33.3788,0 -85.392,46.88759 -107.2461,96.67771 -21.9726,50.0598 -21.8825,56.54581 1.238,89.19775 19.1481,27.04145 20.5149,37.40818 5.8896,44.67569 -14.2622,7.08714 -12.6833,15.72309 6.288,34.39257 23.4459,23.07281 22.6875,26.88487 -10.1872,51.19652 -19.5356,14.44729 -45.3849,26.67676 -57.4429,27.17698 -14.4726,0.59993 -23.4266,25.10671 -26.3461,72.1076 -3.5963,57.89497 1.1531,73.16054 25.4204,81.70109 28.462,10.0168 28.8142,13.81726 7.6117,82.110824 -12.2274,39.384436 -18.0179,80.783669 -12.8676,91.998782 11.4006,24.825615 104.205,12.546173 148.9952,-19.7143498 z m -215.892,-81.0885702 c 0,-10.818553 -6.5771,-19.670096 -14.6157,-19.670096 -8.0387,0 -14.6156,8.851543 -14.6156,19.670096 0,10.818554 6.5769,19.670087 14.6156,19.670087 8.0386,0 14.6157,-8.851533 14.6157,-19.670087 z m -44.0709,-358.979126 c -0.1754,-34.55465 -3.1677,-37.99475 -13.6514,-15.69182 -7.3851,15.71128 -10.1847,35.62725 -6.2213,44.2577 12.6771,27.6056 20.1028,16.93162 19.8727,-28.56588 z m 78.4082,-5.54756 c -11.5937,-40.66024 -19.7216,-35.86879 -19.7216,11.626 0,22.27559 6.2898,35.26947 13.9774,28.87512 7.6876,-6.39417 10.2724,-24.61967 5.7442,-40.50112 z m 915.6832,-237.25254 c 0,-191.83492 -2.3206,-209.19417 -29.2314,-218.66514 -16.0773,-5.65827 -29.2314,-18.10693 -29.2314,-27.66358 0,-28.45437 -53.4437,-19.71078 -72.9595,11.93617 -9.9419,16.12179 -26.593,89.14703 -37.0026,162.27825 -10.4094,73.13143 -21.1676,146.24338 -23.9068,162.47121 -3.7575,22.26103 6.278,28.06173 40.8751,23.62595 32.4383,-4.15906 58.0969,8.6086 87.6942,43.63611 23.0114,27.23343 46.7718,49.79503 52.8007,50.13689 6.029,0.34227 10.9617,-93.1483 10.9617,-207.75586 z M 304.08349,-528.4881 c 17.95291,-26.69801 45.01592,-39.34018 84.21538,-39.34018 49.05161,0 56.26315,-5.19034 47.82624,-34.42265 -5.46439,-18.93246 -16.28381,-83.10612 -24.04327,-142.60815 -7.75949,-59.50202 -21.54647,-128.10146 -30.63759,-152.44318 -19.02043,-50.92671 -62.7968,-58.73764 -75.69384,-13.50584 -4.8226,16.91345 -14.96618,25.59664 -22.54135,19.29595 -8.18377,-6.80691 -15.63982,72.52891 -18.37296,195.49568 -2.52983,113.82332 -0.68548,206.93287 4.09679,206.91005 4.78312,-0.0196 20.60082,-17.74457 35.1506,-39.38168 z m 856.83211,-44.5856 c -14.4347,-19.2818 -16.1135,-17.02249 -8.1819,11.01132 5.4887,19.39903 13.6612,30.31593 18.1613,24.25971 4.5,-6.05622 0.011,-21.92803 -9.9794,-35.27103 z m 97.6736,-5.1101 c -4.5001,-6.05621 -12.6727,4.86069 -18.1612,24.25972 -7.9317,28.03382 -6.253,30.29312 8.1819,11.01132 9.9886,-13.34302 14.4793,-29.2148 9.9793,-35.27104 z M 1140.37,-679.06481 c 2.7603,-11.14427 -20.7978,-44.3399 -52.3511,-73.76832 -31.5534,-29.42823 -72.6491,-92.26846 -91.32412,-139.64469 -25.59414,-64.9296 -38.49408,-81.0679 -52.392,-65.54487 -12.933,14.4452 -14.16583,31.33628 -4.12923,56.57517 7.86983,19.78985 14.30862,50.47303 14.30862,68.18497 0,39.41335 32.01118,84.3294 101.09083,141.84474 53.7015,44.7115 75.9786,47.95686 84.797,12.353 z m 233.4831,-15.65166 c 48.1646,-27.94786 66.4085,-52.91609 85.2091,-116.61513 13.1575,-44.5793 37.6974,-100.96915 54.533,-125.31086 25.4906,-36.85501 26.6616,-44.25761 7.0017,-44.25761 -31.5636,0 -43.9367,-30.78603 -32.2647,-80.27903 6.074,-25.7554 17.5934,-36.4439 31.5236,-29.2499 12.4779,6.4442 5.6004,-14.816 -15.9361,-49.2619 -20.8383,-33.3293 -37.888,-77.1003 -37.888,-97.2688 0,-20.1686 -6.577,-42.1407 -14.6157,-48.8268 -22.0896,-18.3734 -17.5121,-49.1752 7.3079,-49.1752 12.0579,0 21.9235,-7.0742 21.9235,-15.7204 0,-8.6462 -22.5957,-12.17 -50.2124,-7.831 -30.8534,4.8474 -63.0993,-4.2589 -83.6383,-23.62 -43.7543,-41.2449 -70.7691,-39.963 -70.7691,3.3581 0,19.2093 21.4737,50.4306 47.818,69.5242 31.9557,23.1606 59.0286,67.5449 81.6133,133.7996 22.9827,67.4219 40.4172,95.7224 54.492,88.4538 29.5079,-15.2391 25.5813,20.8428 -7.0468,64.7543 -15.2587,20.5354 -32.0175,63.5278 -37.2416,95.53858 -9.8496,60.35274 -87.4338,188.28622 -123.9949,204.46289 -13.2624,5.86799 -17.265,21.99195 -10.9539,44.12572 5.4697,19.18326 14.8743,31.29728 20.8991,26.9201 6.0247,-4.3772 38.5329,-23.96153 72.2403,-43.52066 z m -106.9583,-154.09981 c 24.2645,-23.87831 24.0146,-27.31212 -4.5143,-62.05891 -27.8191,-33.88216 -30.2,-34.10167 -30.2,-2.78595 0,21.97368 -9.0452,31.48044 -25.5775,26.88257 -14.0676,-3.91243 -24.5938,-22.83188 -23.3914,-42.04347 2.0698,-33.07166 0.7089,-33.1311 -25.5774,-1.11532 -31.911,38.86583 -35.99,78.98194 -9.494,93.37062 34.841,18.92047 93.1973,12.90084 118.7546,-12.24954 z m -122.4085,-152.61702 c 0,-7.9396 -11.5098,-13.2065 -25.5774,-11.704 -14.0677,1.5028 -25.5775,-10.5453 -25.5775,-26.7732 0,-16.3648 11.7101,-28.217 26.2939,-26.6123 31.2911,3.4424 26.0109,-30.8679 -9.3104,-60.4977 -45.7138,-38.3479 -72.4897,81.3405 -37.744,168.71557 15.0396,37.81952 17.0942,38.07694 43.8471,5.49329 15.4376,-18.8022 28.0683,-40.68194 28.0683,-48.62166 z m 207.6968,13.95254 c 12.4733,-111.00394 -24.3442,-180.81724 -69.0337,-130.90204 -24.5447,27.4145 -29.9723,67.9734 -6.4816,48.4348 8.3909,-6.9791 24.5558,-2.3021 35.9222,10.3932 26.1157,29.1697 -2.9342,79.34605 -36.4855,63.01967 -16.4598,-8.00967 -15.213,-0.2931 4.9504,30.64335 31.6485,48.55667 64.362,38.62747 71.1282,-21.58898 z m 420.7783,26.25079 c 0,-10.81862 -6.9653,-19.6701 -15.4784,-19.6701 -8.513,0 -11.4133,8.85148 -6.4452,19.6701 4.9682,10.81851 11.9335,19.66999 15.4784,19.66999 3.5449,0 6.4452,-8.85148 6.4452,-19.66999 z m -1303.90699,-112.15163 -29.88896,-43.3063 -26.17555,43.3063 c -23.62379,39.0847 -23.98553,46.5818 -3.71092,76.90802 21.1856,31.68891 24.37709,31.68891 56.06437,0 l 33.59988,-33.60192 z m 1545.83699,75.50966 34.6128,-36.64206 -33.7678,-42.6937 c -29.9549,-37.8727 -35.8679,-39.2881 -52.3667,-12.5331 -10.2296,16.5881 -27.6594,30.1602 -38.733,30.1602 -28.7441,0 -24.977,17.762 12.7513,60.12056 40.6417,45.62926 35.9909,45.53404 77.5034,1.5873 z m -789.2317,-24.08226 c 15.0618,-32.7983 -18.8135,-70.4093 -38.976,-43.2742 -16.8653,22.6977 -6.3099,64.6581 16.2654,64.6581 7.0897,0 17.3095,-9.6228 22.7106,-21.3839 z m -160.0201,-271.783 c 21.4179,-22.6735 47.9203,-41.2245 58.8943,-41.2245 26.3074,0 25.8055,-71.4486 -0.5979,-85.0844 -11.3027,-5.8371 -31.9013,6.267 -45.7747,26.8985 -13.8734,20.6313 -39.13,43.4512 -56.1261,50.7111 -36.58621,15.6276 -66.43916,63.7256 -67.08824,108.09 -0.25579,17.4735 -14.0701,55.0478 -30.69883,83.4984 -20.35352,34.8234 -23.22493,48.1084 -8.78622,40.6519 11.79633,-6.0922 26.41481,-0.2596 32.48559,12.9593 7.20027,15.6792 22.80865,-7.1349 44.89402,-65.6201 18.62098,-49.3105 51.37998,-108.2067 72.79808,-130.8802 z m 707.3218,194.8164 c 0,-10.8185 -6.577,-19.6699 -14.6157,-19.6699 -8.0386,0 -14.6158,8.8514 -14.6158,19.6699 0,10.8186 6.5772,19.6702 14.6158,19.6702 8.0387,0 14.6157,-8.8516 14.6157,-19.6702 z m 99.7256,5.7204 c -21.518,-4.4306 -47.3306,-21.364 -57.3612,-37.6299 -15.7043,-25.466 -12.7255,-27.7125 21.4428,-16.1712 28.1035,9.4929 48.0373,3.2253 68.323,-21.4819 50.57,-61.5915 30.8166,-256.9127 -24.6279,-243.5196 -33.0313,7.9789 -36.5849,-5.1628 -11.4878,-42.4848 27.0095,-40.1662 26.8647,-41.4681 -8.6965,-78.2431 -58.1389,-60.123 -131.2168,-46.2096 -84.874,16.1596 23.1382,31.1397 -24.5494,56.6953 -50.8917,27.2727 -10.3642,-11.5762 -32.5579,-16.2212 -49.3194,-10.3221 -16.7612,5.8991 -35.5222,-0.2655 -41.6908,-13.6974 -6.9748,-15.1884 -5.2173,-19.4337 4.6484,-11.228 8.7253,7.2574 19.9952,4.1992 25.0444,-6.7958 5.2656,-11.466 -6.1096,-19.9909 -26.6754,-19.9909 -29.0617,0 -35.4562,-9.3148 -33.7478,-49.1611 1.1591,-27.039 3.2142,-49.1678 4.5663,-49.1753 19.96,-0.1181 48.6964,30.1397 48.6964,51.2657 0,36.9905 23.9837,34.8364 34.8081,-3.1261 5.638,-19.773 2.8106,-25.6248 -8.0256,-16.6116 -11.8714,9.8741 -14.0511,-4.1097 -7.5058,-48.1535 5.1363,-34.5635 3.1123,-62.0688 -4.5677,-62.0688 -7.5854,0 -10.1294,-12.8442 -5.6531,-28.5428 12.2449,-42.9446 -63.5573,-163.684 -120.0127,-191.1582 -27.3329,-13.3016 -53.2534,-39.2687 -57.6011,-57.7045 -11.0752,-46.9619 -100.8936,-99.917 -157.0791,-92.6112 -40.3317,5.2446 -46.489,13.0306 -43.0476,54.4356 2.2088,26.5731 11.3885,54.4475 20.3995,61.9424 22.1605,18.4322 3.9679,76.6078 -23.9566,76.6078 -29.6564,0 -30.0051,104.6894 -0.4589,137.6907 12.058,13.468 21.9234,17.3085 21.9234,8.5344 0,-8.7739 13.1542,3.0494 29.2315,26.2743 36.0413,52.064 37.676,114.2371 3.6768,139.8438 -23.9566,18.0432 -23.64,22.7164 5.063,74.7401 39.5551,71.6933 93.5275,109.5336 117.708,82.5258 9.8844,-11.0403 14.3417,-32.8038 9.9053,-48.3633 -5.6413,-19.7848 -0.9866,-24.6334 15.4845,-16.1274 21.0824,10.8877 30.8257,47.2556 24.9194,93.0134 -1.1517,8.918 3.5506,11.5207 10.4481,5.7838 6.8975,-5.7374 9.7168,-36.3275 6.2652,-67.9782 -6.9553,-63.7772 18.917,-102.5613 31.8459,-47.7386 4.5019,19.0895 7.7774,43.214 7.2786,53.6104 -0.4983,10.396 11.0899,24.9567 25.7523,32.3571 23.8347,12.0294 22.9102,15.4145 -8.7251,31.9512 -23.0861,12.0679 -29.4359,23.4438 -18.2696,32.7316 24.3643,20.2652 21.1793,51.2537 -5.2677,51.2537 -30.178,0 -41.7678,47.2953 -23.0957,94.2494 19.2518,48.4121 108.4128,106.4553 139.1466,90.5832 12.7914,-6.6059 23.2569,-33.1927 23.2569,-59.0816 0,-46.8193 20.0694,-63.2651 35.6913,-29.2472 4.5018,9.803 22.0813,12.9326 39.0658,6.9551 26.3659,-9.2792 29.3927,-4.5571 20.7016,32.2957 -14.0808,59.7064 15.8488,100.8794 70.7576,97.3393 42.6466,-2.7498 43.0882,-3.4874 6.5879,-11.0027 z m -1502.80333,-54.9435 c 10.02345,-16.2542 26.42037,-80.4278 36.43767,-142.6081 10.01716,-62.1804 23.32067,-138.7638 29.56319,-170.1855 10.98047,-55.27 9.92128,-56.7459 -32.52404,-45.3213 -42.26202,11.3754 -97.73299,-21.3109 -124.63071,-73.439 -9.20642,-17.8421 -19.41725,285.4324 -12.08557,358.9583 3.35591,33.6545 47.51725,98.4192 68.53507,100.5097 9.06393,0.9009 24.68094,-11.6598 34.70439,-27.9141 z m 809.68673,2.0377 c -11.1129,-38.9745 20.4324,-59.2725 46.6342,-30.0069 17.6211,19.6814 18.2183,27.752 3.0137,40.7323 -10.9996,9.3904 -12.2414,16.314 -2.957,16.489 8.8024,0.1573 26.7996,-15.7525 39.9937,-35.3737 31.1652,-46.3462 6.8351,-82.4643 -55.2673,-82.0446 -68.1089,0.4602 -88.2583,24.1836 -64.3327,75.743 21.758,46.8884 45.0834,57.1361 32.9154,14.4609 z m 929.5521,7.8454 c 0,-10.8187 13.096,-19.6702 29.1022,-19.6702 27.3078,0 29.0432,-12.9946 28.1458,-210.7784 -0.5261,-115.928 -4.2808,-218.0173 -8.3438,-226.8649 -4.0632,-8.8479 -20.4945,6.3386 -36.5145,33.7473 -22.5929,38.6551 -42.3864,49.8345 -88.2337,49.8345 -54.2087,0 -58.3636,3.6674 -50.1402,44.2576 4.9315,24.3417 13.3026,92.9412 18.6026,152.4433 5.2999,59.5019 19.2312,128.1014 30.9584,152.4431 21.2702,44.1498 76.4232,61.8941 76.4232,24.5877 z M 574.47395,-1187.436 c 0,-49.2667 7.00896,-53.5464 87.6942,-53.5464 54.46805,0 61.60475,4.3202 53.58746,32.4381 -22.24613,78.0202 80.79121,86.135 136.78848,10.7727 36.93665,-49.71 36.79021,-90.4705 -0.37124,-103.5494 -16.07727,-5.6582 -29.2314,-25.6307 -29.2314,-44.3834 0,-18.7526 -11.50987,-45.9904 -25.57747,-60.5283 -23.88045,-24.6792 -23.39564,-27.2591 7.30785,-38.8855 18.70487,-7.0828 32.88532,-27.9263 32.88532,-48.3375 0,-48.7802 30.13027,-70.4953 45.7372,-32.9629 7.62956,18.348 24.28078,26.3463 41.92252,20.1377 22.47018,-7.9083 29.26588,-0.6315 29.26588,31.3344 0,55.9118 32.03165,52.4748 86.57285,-9.2895 52.371,-59.3073 54.5048,-79.0747 15.7365,-145.7771 -15.7198,-27.0463 -28.7276,-59.2072 -28.9063,-71.4687 -0.3113,-21.335 43.887,-49.7101 84.8052,-54.4449 48.9016,-5.6584 54.9975,-112.385 9.0151,-157.8385 -27.5763,-27.2591 -27.6313,-29.751 -1.9532,-88.5594 32.9209,-75.3966 22.5592,-99.7706 -42.4141,-99.7706 -76.0034,0 -123.582,49.2117 -113.45609,117.3502 8.15786,54.8947 -23.40603,111.3193 -35.33347,63.1631 -17.35848,-70.0841 -121.07865,21.1837 -169.94098,149.5384 -27.05178,71.0609 -21.00116,102.6903 19.64422,102.6903 38.99527,0 49.89567,98.4175 15.67271,141.5046 -14.55548,18.3253 -29.35461,44.88 -32.88678,59.0103 -5.05572,20.2239 -10.97786,20.6339 -27.82932,1.9276 -11.77398,-13.0704 -35.12095,-18.9379 -51.88238,-13.0389 -32.12955,11.3075 -66.62874,-33.6951 -36.27091,-47.3137 24.55804,-11.018 5.81808,-43.7395 -25.04956,-43.7395 -33.79208,0 -97.13944,89.5741 -75.86293,107.2711 27.33076,22.7329 17.01516,66.7749 -17.17037,73.3091 -68.78501,13.1473 -42.39388,252.1618 27.84275,252.1618 11.22501,0 19.65826,-21.0958 19.65826,-49.1752 z m 598.79615,-354.0616 c 0,-10.8186 -6.3756,-6.3928 -14.1681,9.8349 -7.7926,16.2278 -14.168,38.3568 -14.168,49.1753 0,10.8185 6.3754,6.3927 14.168,-9.8351 7.7925,-16.2278 14.1681,-38.3567 14.1681,-49.1751 z m 75.9882,5.2804 c -10.846,-14.5967 -12.748,-6.9168 -6.3907,25.8014 5.1683,26.5978 11.7935,35.5143 15.4423,20.7824 3.5147,-14.1907 -0.5584,-35.1535 -9.0516,-46.5838 z m -740.35505,-54.7529 c 14.65969,-21.8007 46.92005,-46.8878 71.68987,-55.7495 30.5889,-10.9432 43.65811,-26.6227 40.74112,-48.8778 -2.72789,-20.8129 5.53189,-32.7661 22.64132,-32.7661 17.46605,0 33.37568,-23.9671 45.25284,-68.1713 20.73223,-77.1614 156.47379,-264.4132 230.64774,-318.1723 27.07194,-19.6209 49.121,-44.7262 48.99799,-55.7889 -0.3947,-35.4165 -20.87416,-64.5282 -50.76342,-72.1578 -35.25482,-8.9992 -49.22803,-75.8124 -15.85512,-75.8124 31.85975,0 28.80492,-33.7715 -5.27538,-58.3182 -49.17745,-35.4205 -103.27074,-25.48 -103.27074,18.978 0,21.8557 -9.74385,39.3402 -21.92356,39.3402 -12.05795,0 -21.92355,-8.8516 -21.92355,-19.6701 0,-35.3832 -40.7053,-20.6883 -86.57274,31.2537 -31.45313,35.6183 -44.96856,68.3197 -44.96856,108.8029 0,63.9828 38.74125,99.5833 59.40932,54.5931 10.66521,-23.2161 16.0701,-22.8015 35.01467,2.6871 20.12642,27.0784 20.09588,34.5734 -0.29962,73.7629 -14.70207,28.2481 -37.86459,43.6217 -65.72169,43.6217 -37.53355,0 -43.01838,7.135 -43.01838,55.9615 0,64.3946 -46.77214,131.3159 -79.84192,114.2373 -27.00396,-13.9459 -29.80667,-65.246 -4.19836,-76.8455 26.44039,-11.9764 -13.89705,-73.6831 -48.16634,-73.6831 -29.62923,0 -116.26029,108.1244 -116.26029,145.1046 0,13.2321 7.31939,33.9087 16.26537,45.9483 21.15578,28.4719 3.67731,66.1746 -24.04137,51.8597 -25.8176,-13.3334 -29.93851,72.7329 -6.32553,132.1121 17.71291,44.5425 50.40517,51.8821 38.04745,8.5419 -5.74412,-20.1457 0.82871,-29.5051 20.72171,-29.5051 17.62828,0 34.62079,19.4208 43.02658,49.1753 16.81974,59.5379 30.97242,61.5839 65.97059,9.5378 z m 1468.67795,-9.5378 c 7.6407,-27.0463 24.6243,-49.1753 37.7412,-49.1753 15.684,0 20.8294,10.5907 15.0287,30.9342 -15.4274,54.1064 40.2554,22.6859 60.4904,-34.1333 20.7397,-58.236 10.9711,-114.8214 -19.8219,-114.8214 -24.4203,0 -25.2238,-10.0251 -4.8997,-61.1339 12.9175,-32.4834 7.1483,-50.0638 -35.0777,-106.8924 -32.0323,-43.1096 -64.6206,-68.0147 -88.9973,-68.0147 -42.1388,0 -67.8839,53.4431 -37.7994,78.4662 24.783,20.6138 5.6665,59.2243 -29.3226,59.2243 -32.3889,0 -58.1144,-55.2102 -58.1144,-124.7209 0,-36.9362 -6.2536,-46.4259 -26.0113,-39.4724 -37.2377,13.1054 -105.53,-26.2622 -105.53,-60.8339 0,-16.1149 13.1542,-38.7742 29.2315,-50.354 19.8186,-14.2746 29.2312,-14.4974 29.2312,-0.6924 0,35.5307 42.1883,21.9474 58.3923,-18.8005 11.7074,-29.4402 9.9832,-53.7117 -6.9449,-97.7673 -28.514,-74.2083 -72.573,-106.2105 -126.3114,-91.7461 -23.1339,6.2273 -42.0615,3.0966 -42.0615,-6.9562 0,-10.0532 -23.4142,-14.2439 -52.0316,-9.313 -38.8207,6.6893 -49.3585,2.7149 -41.5038,-15.6525 6.1179,-14.3062 4.9544,-17.7519 -2.7772,-8.2266 -17.7896,21.9167 -17.6715,59.1271 0.2411,75.8403 8.8023,8.2133 3.2373,30.3575 -14.1266,56.2135 -15.7577,23.4639 -26.6826,58.6955 -24.2776,78.2927 3.4348,27.9896 -2.5406,33.1981 -27.8631,24.286 -22.8879,-8.0553 -29.068,-4.4471 -21.3119,12.4421 6.008,13.0828 28.4119,21.994 49.7865,19.8023 77.4992,-7.9463 88.5785,0.3856 104.1751,78.3368 8.4061,42.0139 26.3649,88.4844 39.9083,103.2679 16.8643,18.4087 21.1652,19.1307 13.6481,2.2914 -6.112,-13.6916 -3.8866,-24.5876 5.0217,-24.5876 16.8375,0 73.4216,160.4283 73.4216,208.1667 0,16.5248 14.691,27.8744 36.0806,27.8744 25.5127,0 33.6988,8.3533 27.9486,28.5197 -5.3905,18.905 8.3146,38.0915 40.6518,56.9108 26.8312,15.6151 61.9381,42.3317 78.0153,59.3701 40.0696,42.4654 49.687,39.9877 65.7707,-16.945 z m -809.6488,-63.5182 c -14.8572,-19.9948 -27.1158,10.1082 -14.9259,36.6528 9.2083,20.0522 12.6511,20.0677 17.6017,0.079 3.3849,-13.6667 2.1808,-30.1963 -2.6758,-36.7324 z m 93.4794,13.182 c 0,-10.18 -6.5769,-18.5091 -14.6156,-18.5091 -8.0387,0 -14.6157,13.7997 -14.6157,30.666 0,16.8663 6.577,25.1954 14.6157,18.5091 8.0387,-6.6863 14.6156,-20.4859 14.6156,-30.666 z m 906.1735,-531.0923 0,-313.5606 -237.5051,0.2931 -237.5052,0.293 58.4628,66.6535 c 93.2105,106.2694 141.0875,134.822 186.8261,111.4183 25.1774,-12.8827 36.27,-30.1696 31.0671,-48.4161 -6.3536,-22.2835 6.2633,-28.0869 58.742,-27.0192 62.9795,1.2804 66.8338,4.4904 66.8338,55.6459 0,29.8573 3.9921,68.2872 8.8716,85.3998 6.3306,22.2018 0.1988,31.1139 -21.4094,31.1139 -36.3282,0 -64.3046,61.8456 -50.5187,111.6782 5.4545,19.716 31.739,78.8855 58.4104,131.4876 26.6712,52.6021 48.4932,104.0209 48.4932,114.2639 0,10.243 6.5772,13.1531 14.6158,6.4669 8.7547,-7.2818 14.6156,-137.8947 14.6156,-325.7174 z m -1832.18313,183.01 c 61.50257,-108.4362 67.4972,-201.5192 12.978,-201.5192 -34.0784,0 -35.78494,-5.2072 -30.61959,-93.433 5.09956,-87.1014 8.28797,-93.6084 47.05144,-96.0211 22.86977,-1.4242 51.29088,-5.8494 63.15795,-9.8351 13.14346,-4.4144 23.47429,9.401 26.43206,35.3477 9.79384,85.9157 80.90988,72.559 176.13848,-33.0819 29.09694,-32.2785 61.65882,-58.6879 72.35956,-58.6879 10.70089,0 16.37923,-6.7 12.61876,-14.8888 -3.76061,-8.189 -64.98667,-13.4594 -136.05786,-11.7124 -71.07131,1.7468 -170.32712,4.0212 -220.56861,5.0538 l -91.34812,1.8766 1.15317,309.8039 c 0.63434,170.3921 4.8625,297.1601 9.39513,281.7064 4.53278,-15.4539 30.32173,-67.0283 57.30889,-114.6097 z m 889.47053,14.8517 c 4.9681,-10.8186 -1.2205,-19.67 -13.7532,-19.67 -12.5323,0 -22.786,8.8514 -22.786,19.67 0,10.8185 6.1888,19.6701 13.753,19.6701 7.5642,0 17.818,-8.8516 22.7862,-19.6701 z m 350.8253,-78.5745 c 18.9078,39.1223 18.2314,112.6263 -74.4983,-36.4601 -7.7377,-12.4402 -4.0827,17.4639 4.8894,10.0012 8.4382,-7.0187 19.1136,0.4642 23.723,16.631 4.6094,16.1655 18.8409,29.3921 31.6255,29.3921 12.7846,0 9.1078,-30.2254 14.2604,-19.5642 z m 366.5395,-39.446 c 30.4178,0 35.3437,-9.2764 35.3437,-66.5583 0,-61.9725 -3.0417,-66.2362 -44.1474,-61.8845 -53.0134,5.6124 -51.6202,3.7146 -63.314,86.2601 -7.7819,54.9331 -5.4823,64.0053 13.7117,54.0927 12.6843,-6.5505 38.9668,-11.91 58.406,-11.91 z m -1402.73906,-31.114 c -4.87945,-17.1126 -8.87159,-43.6673 -8.87159,-59.0103 0,-17.3298 -15.22429,-27.8793 -40.19317,-27.8514 -34.55445,0.039 -40.41154,8.3172 -41.74945,59.0103 -1.43965,54.5603 2.22537,58.9654 49.06475,58.9654 40.15503,0 48.78677,-6.433 41.74946,-31.114 z m 744.74426,-47.5664 c 22.7398,0 18.1204,-13.0769 -25.228,-71.4155 l -53.0647,-71.4159 -43.3941,65.3619 -43.3941,65.3614 45.5476,31.779 c 37.8041,26.3765 49.4704,27.4055 68.622,6.054 12.6908,-14.1486 35.601,-25.7249 50.9113,-25.7249 z m -154.3722,-188.5188 c 0,-29.1286 -8.4855,-47.5223 -21.9234,-47.5223 -12.1798,0 -21.9237,-17.4845 -21.9237,-39.3402 0,-35.0328 -9.7438,-39.3401 -88.99327,-39.3401 l -88.99359,0 37.83859,60.5196 c 20.8111,33.2855 37.83847,82.551 37.83847,109.4784 0,26.9276 6.94721,66.4296 15.43841,87.7822 14.87369,37.4023 17.54749,36.5748 73.07849,-22.6162 38.6071,-41.1516 57.64,-77.1309 57.64,-108.9614 z m 270.004,109.4068 c 14.4489,16.1382 22.4717,0.6902 35.3282,-68.0244 10.3813,-55.484 24.7965,-88.9047 38.3473,-88.9047 11.9423,0 20.0689,-11.0644 18.0591,-24.5876 -5.6536,-38.0435 -30.8713,-54.6466 -43.2374,-28.4668 -8.4904,17.9744 -11.1768,17.7285 -11.3476,-1.0385 -0.3728,-41.0175 -26.7961,-27.5104 -37.8465,19.3471 l -13.2183,9.7092 -9.2193,-9.7092 c -39.1204,-41.1996 -62.9695,-61.4659 -50.1324,-7.0328 6.1978,26.2816 0.1724,39.9039 -20.9388,47.3337 -41.5077,14.6082 -37.0285,46.5392 16.6653,118.8015 30.6318,41.2246 48.4288,53.7512 52.5763,37.0057 4.5139,-18.2248 11.5048,-19.4666 24.9641,-4.4332 z m -170.4345,-214.71 c 3.6539,-14.7526 -1.8269,-22.1288 -12.7887,-17.2112 -10.5508,4.7329 -22.0605,20.2231 -25.5774,34.4227 -3.654,14.7524 1.8269,22.1287 12.7886,17.2112 10.5508,-4.7332 22.0606,-20.2233 25.5775,-34.4227 z"
       id="path3153"
       inkscape:connector-curvature="0"
       sodipodi:nodetypes="cccccscssssscssscsssssssssssssssssscssssssssssssssssscsscscssssscssssssccssssscscscssssssscscsccsssssscssssssscscssssssssssssssssssssssssccccsscscccsscsssscsssccssssssssccssssssssssssscsscsscsssssssccsssssscscsssssscssscsssssssscsssscsccssssssssscssscccssssscsscsscssssssssscssssssssscssssssssssssssssssssssssssssssssssssssssssssssssscssssssssssssssssssccsssccccssssccsssssssssssccssssssscssssssssscsssccsssssssssssssssssssccssscsssssssssssccsssssscsssscsssssssssssssssssssssssssssscsssssssssccscsssssssssssssssssssscsssssssssscssssssssssssscsssssssssssssssscsssscsssssssssssssscccscccsssssccccssssssssssssccsscsssscsscssccsssssssscsssssssssscssssscccssssssscssssscsssscscssssscsssss" />
  </g>
</svg>
